<mxfile host="app.diagrams.net" agent="Mozilla/5.0 (Windows NT 10.0; Win64; x64) AppleWebKit/537.36 (KHTML, like Gecko) Chrome/140.0.0.0 Safari/537.36" version="28.2.5">
  <diagram name="Page-1" id="g72k9wnhXkc7eaqZVtoJ">
    <mxGraphModel dx="2951" dy="1636" grid="1" gridSize="10" guides="1" tooltips="1" connect="1" arrows="1" fold="1" page="1" pageScale="1" pageWidth="827" pageHeight="1169" math="0" shadow="0">
      <root>
        <mxCell id="0" />
        <mxCell id="1" parent="0" />
        <mxCell id="wCdDEIBs15aJ1-fx2VtD-24" value="" style="rounded=0;whiteSpace=wrap;html=1;fillStyle=solid;fillColor=#d5e8d4;shadow=0;strokeColor=#82b366;" vertex="1" parent="1">
          <mxGeometry x="280" y="80" width="240" height="360" as="geometry" />
        </mxCell>
        <mxCell id="wCdDEIBs15aJ1-fx2VtD-1" value="" style="endArrow=none;html=1;rounded=0;" edge="1" parent="1">
          <mxGeometry width="50" height="50" relative="1" as="geometry">
            <mxPoint x="240" y="480" as="sourcePoint" />
            <mxPoint x="240" y="120" as="targetPoint" />
          </mxGeometry>
        </mxCell>
        <mxCell id="wCdDEIBs15aJ1-fx2VtD-2" value="" style="endArrow=none;html=1;rounded=0;" edge="1" parent="1">
          <mxGeometry width="50" height="50" relative="1" as="geometry">
            <mxPoint x="480" y="480" as="sourcePoint" />
            <mxPoint x="480" y="120" as="targetPoint" />
          </mxGeometry>
        </mxCell>
        <mxCell id="wCdDEIBs15aJ1-fx2VtD-3" value="" style="endArrow=none;html=1;rounded=0;" edge="1" parent="1">
          <mxGeometry width="50" height="50" relative="1" as="geometry">
            <mxPoint x="240" y="120" as="sourcePoint" />
            <mxPoint x="480" y="120" as="targetPoint" />
          </mxGeometry>
        </mxCell>
        <mxCell id="wCdDEIBs15aJ1-fx2VtD-4" value="" style="endArrow=none;html=1;rounded=0;" edge="1" parent="1">
          <mxGeometry width="50" height="50" relative="1" as="geometry">
            <mxPoint x="240" y="120" as="sourcePoint" />
            <mxPoint x="280" y="80" as="targetPoint" />
          </mxGeometry>
        </mxCell>
        <mxCell id="wCdDEIBs15aJ1-fx2VtD-5" value="" style="endArrow=none;html=1;rounded=0;" edge="1" parent="1">
          <mxGeometry width="50" height="50" relative="1" as="geometry">
            <mxPoint x="480" y="120" as="sourcePoint" />
            <mxPoint x="520" y="80" as="targetPoint" />
          </mxGeometry>
        </mxCell>
        <mxCell id="wCdDEIBs15aJ1-fx2VtD-6" value="" style="endArrow=none;html=1;rounded=0;" edge="1" parent="1">
          <mxGeometry width="50" height="50" relative="1" as="geometry">
            <mxPoint x="280" y="80" as="sourcePoint" />
            <mxPoint x="520" y="80" as="targetPoint" />
          </mxGeometry>
        </mxCell>
        <mxCell id="wCdDEIBs15aJ1-fx2VtD-7" value="" style="endArrow=none;html=1;rounded=0;" edge="1" parent="1">
          <mxGeometry width="50" height="50" relative="1" as="geometry">
            <mxPoint x="520" y="440" as="sourcePoint" />
            <mxPoint x="520" y="80" as="targetPoint" />
          </mxGeometry>
        </mxCell>
        <mxCell id="wCdDEIBs15aJ1-fx2VtD-8" value="" style="endArrow=none;html=1;rounded=0;" edge="1" parent="1">
          <mxGeometry width="50" height="50" relative="1" as="geometry">
            <mxPoint x="240" y="360" as="sourcePoint" />
            <mxPoint x="480" y="360" as="targetPoint" />
          </mxGeometry>
        </mxCell>
        <mxCell id="wCdDEIBs15aJ1-fx2VtD-9" value="" style="endArrow=none;html=1;rounded=0;" edge="1" parent="1">
          <mxGeometry width="50" height="50" relative="1" as="geometry">
            <mxPoint x="480" y="360" as="sourcePoint" />
            <mxPoint x="520" y="320" as="targetPoint" />
          </mxGeometry>
        </mxCell>
        <mxCell id="wCdDEIBs15aJ1-fx2VtD-10" value="" style="endArrow=none;html=1;rounded=0;" edge="1" parent="1">
          <mxGeometry width="50" height="50" relative="1" as="geometry">
            <mxPoint x="240" y="360" as="sourcePoint" />
            <mxPoint x="280" y="320" as="targetPoint" />
          </mxGeometry>
        </mxCell>
        <mxCell id="wCdDEIBs15aJ1-fx2VtD-11" value="" style="endArrow=none;html=1;rounded=0;" edge="1" parent="1">
          <mxGeometry width="50" height="50" relative="1" as="geometry">
            <mxPoint x="280" y="320" as="sourcePoint" />
            <mxPoint x="520" y="320" as="targetPoint" />
          </mxGeometry>
        </mxCell>
        <mxCell id="wCdDEIBs15aJ1-fx2VtD-12" value="" style="endArrow=none;html=1;rounded=0;" edge="1" parent="1">
          <mxGeometry width="50" height="50" relative="1" as="geometry">
            <mxPoint x="280" y="440" as="sourcePoint" />
            <mxPoint x="280" y="80" as="targetPoint" />
          </mxGeometry>
        </mxCell>
        <mxCell id="wCdDEIBs15aJ1-fx2VtD-13" value="" style="endArrow=none;html=1;rounded=0;" edge="1" parent="1">
          <mxGeometry width="50" height="50" relative="1" as="geometry">
            <mxPoint x="270" y="360" as="sourcePoint" />
            <mxPoint x="310" y="320" as="targetPoint" />
          </mxGeometry>
        </mxCell>
        <mxCell id="wCdDEIBs15aJ1-fx2VtD-14" value="" style="endArrow=none;html=1;rounded=0;" edge="1" parent="1">
          <mxGeometry width="50" height="50" relative="1" as="geometry">
            <mxPoint x="450" y="360" as="sourcePoint" />
            <mxPoint x="490" y="320" as="targetPoint" />
          </mxGeometry>
        </mxCell>
        <mxCell id="wCdDEIBs15aJ1-fx2VtD-15" value="" style="endArrow=none;html=1;rounded=0;" edge="1" parent="1">
          <mxGeometry width="50" height="50" relative="1" as="geometry">
            <mxPoint x="270" y="360" as="sourcePoint" />
            <mxPoint x="270" y="310" as="targetPoint" />
          </mxGeometry>
        </mxCell>
        <mxCell id="wCdDEIBs15aJ1-fx2VtD-16" value="" style="endArrow=none;html=1;rounded=0;" edge="1" parent="1">
          <mxGeometry width="50" height="50" relative="1" as="geometry">
            <mxPoint x="450" y="360" as="sourcePoint" />
            <mxPoint x="450" y="310" as="targetPoint" />
          </mxGeometry>
        </mxCell>
        <mxCell id="wCdDEIBs15aJ1-fx2VtD-17" value="" style="endArrow=none;html=1;rounded=0;" edge="1" parent="1">
          <mxGeometry width="50" height="50" relative="1" as="geometry">
            <mxPoint x="270" y="310" as="sourcePoint" />
            <mxPoint x="450" y="310" as="targetPoint" />
          </mxGeometry>
        </mxCell>
        <mxCell id="wCdDEIBs15aJ1-fx2VtD-18" value="" style="endArrow=none;html=1;rounded=0;" edge="1" parent="1">
          <mxGeometry width="50" height="50" relative="1" as="geometry">
            <mxPoint x="270" y="310" as="sourcePoint" />
            <mxPoint x="310" y="270" as="targetPoint" />
          </mxGeometry>
        </mxCell>
        <mxCell id="wCdDEIBs15aJ1-fx2VtD-19" value="" style="endArrow=none;html=1;rounded=0;" edge="1" parent="1">
          <mxGeometry width="50" height="50" relative="1" as="geometry">
            <mxPoint x="450" y="310" as="sourcePoint" />
            <mxPoint x="490" y="270" as="targetPoint" />
          </mxGeometry>
        </mxCell>
        <mxCell id="wCdDEIBs15aJ1-fx2VtD-20" value="" style="endArrow=none;html=1;rounded=0;" edge="1" parent="1">
          <mxGeometry width="50" height="50" relative="1" as="geometry">
            <mxPoint x="310" y="270" as="sourcePoint" />
            <mxPoint x="490" y="270" as="targetPoint" />
          </mxGeometry>
        </mxCell>
        <mxCell id="wCdDEIBs15aJ1-fx2VtD-21" value="" style="endArrow=none;html=1;rounded=0;" edge="1" parent="1">
          <mxGeometry width="50" height="50" relative="1" as="geometry">
            <mxPoint x="490" y="320" as="sourcePoint" />
            <mxPoint x="490" y="270" as="targetPoint" />
          </mxGeometry>
        </mxCell>
        <mxCell id="wCdDEIBs15aJ1-fx2VtD-22" value="" style="endArrow=none;html=1;rounded=0;" edge="1" parent="1">
          <mxGeometry width="50" height="50" relative="1" as="geometry">
            <mxPoint x="310" y="270" as="sourcePoint" />
            <mxPoint x="310" y="320" as="targetPoint" />
          </mxGeometry>
        </mxCell>
        <mxCell id="wCdDEIBs15aJ1-fx2VtD-23" value="" style="rounded=0;whiteSpace=wrap;html=1;fillColor=none;dashed=1;" vertex="1" parent="1">
          <mxGeometry x="330" y="290" width="120" height="10" as="geometry" />
        </mxCell>
        <mxCell id="wCdDEIBs15aJ1-fx2VtD-34" value="" style="group" vertex="1" connectable="0" parent="1">
          <mxGeometry x="330" y="270" width="120" height="20" as="geometry" />
        </mxCell>
        <mxCell id="wCdDEIBs15aJ1-fx2VtD-35" value="" style="endArrow=classic;startArrow=classic;html=1;rounded=0;strokeWidth=1;startSize=1;endSize=1;" edge="1" parent="wCdDEIBs15aJ1-fx2VtD-34">
          <mxGeometry width="50" height="50" relative="1" as="geometry">
            <mxPoint y="10" as="sourcePoint" />
            <mxPoint x="120" y="10" as="targetPoint" />
          </mxGeometry>
        </mxCell>
        <mxCell id="wCdDEIBs15aJ1-fx2VtD-36" value="" style="endArrow=none;html=1;rounded=0;dashed=1;dashPattern=1 2;" edge="1" parent="wCdDEIBs15aJ1-fx2VtD-34">
          <mxGeometry width="50" height="50" relative="1" as="geometry">
            <mxPoint y="20" as="sourcePoint" />
            <mxPoint as="targetPoint" />
          </mxGeometry>
        </mxCell>
        <mxCell id="wCdDEIBs15aJ1-fx2VtD-37" value="" style="endArrow=none;html=1;rounded=0;dashed=1;dashPattern=1 2;" edge="1" parent="wCdDEIBs15aJ1-fx2VtD-34">
          <mxGeometry width="50" height="50" relative="1" as="geometry">
            <mxPoint x="120" y="20" as="sourcePoint" />
            <mxPoint x="120" as="targetPoint" />
          </mxGeometry>
        </mxCell>
        <mxCell id="wCdDEIBs15aJ1-fx2VtD-39" value="94" style="text;html=1;align=center;verticalAlign=middle;whiteSpace=wrap;rounded=0;" vertex="1" parent="1">
          <mxGeometry x="360" y="260" width="60" height="30" as="geometry" />
        </mxCell>
        <mxCell id="wCdDEIBs15aJ1-fx2VtD-41" value="" style="endArrow=classic;startArrow=classic;html=1;rounded=0;strokeWidth=1;startSize=1;endSize=1;" edge="1" parent="1">
          <mxGeometry width="50" height="50" relative="1" as="geometry">
            <mxPoint x="227" y="360" as="sourcePoint" />
            <mxPoint x="227" y="310" as="targetPoint" />
          </mxGeometry>
        </mxCell>
        <mxCell id="wCdDEIBs15aJ1-fx2VtD-43" value="" style="endArrow=none;html=1;rounded=0;dashed=1;dashPattern=1 2;" edge="1" parent="1">
          <mxGeometry width="50" height="50" relative="1" as="geometry">
            <mxPoint x="239" y="310" as="sourcePoint" />
            <mxPoint x="219" y="310" as="targetPoint" />
          </mxGeometry>
        </mxCell>
        <mxCell id="wCdDEIBs15aJ1-fx2VtD-44" value="50" style="text;html=1;align=center;verticalAlign=middle;whiteSpace=wrap;rounded=0;" vertex="1" parent="1">
          <mxGeometry x="187" y="320" width="60" height="30" as="geometry" />
        </mxCell>
        <mxCell id="wCdDEIBs15aJ1-fx2VtD-45" value="" style="endArrow=none;html=1;rounded=0;dashed=1;dashPattern=1 2;" edge="1" parent="1">
          <mxGeometry width="50" height="50" relative="1" as="geometry">
            <mxPoint x="237" y="360" as="sourcePoint" />
            <mxPoint x="217" y="360" as="targetPoint" />
          </mxGeometry>
        </mxCell>
        <mxCell id="wCdDEIBs15aJ1-fx2VtD-46" value="" style="group" vertex="1" connectable="0" parent="1">
          <mxGeometry x="310" y="250" width="180" height="20" as="geometry" />
        </mxCell>
        <mxCell id="wCdDEIBs15aJ1-fx2VtD-47" value="" style="endArrow=classic;startArrow=classic;html=1;rounded=0;strokeWidth=1;startSize=1;endSize=1;" edge="1" parent="wCdDEIBs15aJ1-fx2VtD-46">
          <mxGeometry width="50" height="50" relative="1" as="geometry">
            <mxPoint y="10" as="sourcePoint" />
            <mxPoint x="180" y="10" as="targetPoint" />
          </mxGeometry>
        </mxCell>
        <mxCell id="wCdDEIBs15aJ1-fx2VtD-48" value="" style="endArrow=none;html=1;rounded=0;dashed=1;dashPattern=1 2;" edge="1" parent="wCdDEIBs15aJ1-fx2VtD-46">
          <mxGeometry width="50" height="50" relative="1" as="geometry">
            <mxPoint y="20" as="sourcePoint" />
            <mxPoint as="targetPoint" />
          </mxGeometry>
        </mxCell>
        <mxCell id="wCdDEIBs15aJ1-fx2VtD-49" value="" style="endArrow=none;html=1;rounded=0;dashed=1;dashPattern=1 2;" edge="1" parent="wCdDEIBs15aJ1-fx2VtD-46">
          <mxGeometry width="50" height="50" relative="1" as="geometry">
            <mxPoint x="180" y="20" as="sourcePoint" />
            <mxPoint x="180" as="targetPoint" />
          </mxGeometry>
        </mxCell>
        <mxCell id="wCdDEIBs15aJ1-fx2VtD-50" value="162" style="text;html=1;align=center;verticalAlign=middle;whiteSpace=wrap;rounded=0;" vertex="1" parent="wCdDEIBs15aJ1-fx2VtD-46">
          <mxGeometry x="50" y="-10" width="60" height="30" as="geometry" />
        </mxCell>
        <mxCell id="wCdDEIBs15aJ1-fx2VtD-52" value="" style="endArrow=classic;startArrow=classic;html=1;rounded=0;strokeWidth=1;startSize=1;endSize=1;" edge="1" parent="1">
          <mxGeometry width="50" height="50" relative="1" as="geometry">
            <mxPoint x="263" y="303" as="sourcePoint" />
            <mxPoint x="303" y="263" as="targetPoint" />
          </mxGeometry>
        </mxCell>
        <mxCell id="wCdDEIBs15aJ1-fx2VtD-53" value="" style="endArrow=none;html=1;rounded=0;dashed=1;dashPattern=1 2;" edge="1" parent="1">
          <mxGeometry width="50" height="50" relative="1" as="geometry">
            <mxPoint x="270" y="310" as="sourcePoint" />
            <mxPoint x="256" y="296" as="targetPoint" />
          </mxGeometry>
        </mxCell>
        <mxCell id="wCdDEIBs15aJ1-fx2VtD-54" value="" style="endArrow=none;html=1;rounded=0;dashed=1;dashPattern=1 2;" edge="1" parent="1">
          <mxGeometry width="50" height="50" relative="1" as="geometry">
            <mxPoint x="310" y="271" as="sourcePoint" />
            <mxPoint x="296" y="257" as="targetPoint" />
          </mxGeometry>
        </mxCell>
        <mxCell id="wCdDEIBs15aJ1-fx2VtD-55" value="102" style="text;html=1;align=center;verticalAlign=middle;whiteSpace=wrap;rounded=0;rotation=-45;" vertex="1" parent="1">
          <mxGeometry x="240" y="250" width="60" height="30" as="geometry" />
        </mxCell>
        <mxCell id="wCdDEIBs15aJ1-fx2VtD-62" value="" style="endArrow=classic;html=1;rounded=0;" edge="1" parent="1">
          <mxGeometry width="50" height="50" relative="1" as="geometry">
            <mxPoint x="560" y="170" as="sourcePoint" />
            <mxPoint x="414" y="170" as="targetPoint" />
          </mxGeometry>
        </mxCell>
        <mxCell id="wCdDEIBs15aJ1-fx2VtD-64" value="backplane board" style="text;html=1;align=center;verticalAlign=middle;whiteSpace=wrap;rounded=0;" vertex="1" parent="1">
          <mxGeometry x="560" y="160" width="60" height="30" as="geometry" />
        </mxCell>
        <mxCell id="wCdDEIBs15aJ1-fx2VtD-65" value="module&lt;div&gt;&lt;i&gt;uC&lt;/i&gt;&lt;/div&gt;&lt;div&gt;&lt;i&gt;RF generator&lt;/i&gt;&lt;/div&gt;&lt;div&gt;&lt;i&gt;RF frequencymeter&lt;/i&gt;&lt;/div&gt;&lt;div&gt;&lt;i&gt;RF power meter&lt;/i&gt;&lt;/div&gt;" style="text;html=1;align=left;verticalAlign=middle;whiteSpace=wrap;rounded=0;" vertex="1" parent="1">
          <mxGeometry x="560" y="310" width="150" height="100" as="geometry" />
        </mxCell>
        <mxCell id="wCdDEIBs15aJ1-fx2VtD-66" value="" style="endArrow=classic;html=1;rounded=0;" edge="1" parent="1">
          <mxGeometry width="50" height="50" relative="1" as="geometry">
            <mxPoint x="553" y="328" as="sourcePoint" />
            <mxPoint x="407" y="328" as="targetPoint" />
          </mxGeometry>
        </mxCell>
        <mxCell id="wCdDEIBs15aJ1-fx2VtD-68" value="" style="rounded=0;whiteSpace=wrap;html=1;fillStyle=solid;fillColor=none;shadow=0;strokeColor=#330000;" vertex="1" parent="1">
          <mxGeometry x="280" y="520" width="240" height="360" as="geometry" />
        </mxCell>
        <mxCell id="wCdDEIBs15aJ1-fx2VtD-69" value="" style="rounded=0;whiteSpace=wrap;html=1;fillColor=none;dashed=1;" vertex="1" parent="1">
          <mxGeometry x="340" y="560" width="120" height="10" as="geometry" />
        </mxCell>
        <mxCell id="wCdDEIBs15aJ1-fx2VtD-70" value="" style="rounded=0;whiteSpace=wrap;html=1;fillColor=none;dashed=1;" vertex="1" parent="1">
          <mxGeometry x="340" y="640" width="120" height="10" as="geometry" />
        </mxCell>
        <mxCell id="wCdDEIBs15aJ1-fx2VtD-71" value="" style="rounded=0;whiteSpace=wrap;html=1;fillColor=none;dashed=1;" vertex="1" parent="1">
          <mxGeometry x="340" y="720" width="120" height="10" as="geometry" />
        </mxCell>
        <mxCell id="wCdDEIBs15aJ1-fx2VtD-72" value="" style="rounded=0;whiteSpace=wrap;html=1;fillColor=none;dashed=1;" vertex="1" parent="1">
          <mxGeometry x="340" y="800" width="120" height="10" as="geometry" />
        </mxCell>
        <mxCell id="wCdDEIBs15aJ1-fx2VtD-73" value="" style="endArrow=none;html=1;rounded=0;" edge="1" parent="1">
          <mxGeometry width="50" height="50" relative="1" as="geometry">
            <mxPoint x="240" y="240" as="sourcePoint" />
            <mxPoint x="480" y="240" as="targetPoint" />
          </mxGeometry>
        </mxCell>
        <mxCell id="wCdDEIBs15aJ1-fx2VtD-74" value="" style="endArrow=none;html=1;rounded=0;" edge="1" parent="1">
          <mxGeometry width="50" height="50" relative="1" as="geometry">
            <mxPoint x="480" y="240" as="sourcePoint" />
            <mxPoint x="520" y="200" as="targetPoint" />
          </mxGeometry>
        </mxCell>
        <mxCell id="wCdDEIBs15aJ1-fx2VtD-75" value="" style="endArrow=none;html=1;rounded=0;" edge="1" parent="1">
          <mxGeometry width="50" height="50" relative="1" as="geometry">
            <mxPoint x="240" y="240" as="sourcePoint" />
            <mxPoint x="280" y="200" as="targetPoint" />
          </mxGeometry>
        </mxCell>
        <mxCell id="wCdDEIBs15aJ1-fx2VtD-76" value="" style="endArrow=none;html=1;rounded=0;" edge="1" parent="1">
          <mxGeometry width="50" height="50" relative="1" as="geometry">
            <mxPoint x="280" y="200" as="sourcePoint" />
            <mxPoint x="520" y="200" as="targetPoint" />
          </mxGeometry>
        </mxCell>
        <mxCell id="wCdDEIBs15aJ1-fx2VtD-77" value="" style="rounded=0;whiteSpace=wrap;html=1;fillColor=none;" vertex="1" parent="1">
          <mxGeometry x="330" y="180" width="120" height="10" as="geometry" />
        </mxCell>
        <mxCell id="wCdDEIBs15aJ1-fx2VtD-78" value="&lt;i&gt;connector DIN 41612&lt;/i&gt;" style="text;html=1;align=center;verticalAlign=middle;whiteSpace=wrap;rounded=0;" vertex="1" parent="1">
          <mxGeometry x="100" y="150" width="120" height="30" as="geometry" />
        </mxCell>
        <mxCell id="wCdDEIBs15aJ1-fx2VtD-79" value="" style="endArrow=classic;html=1;rounded=0;exitX=1;exitY=0.75;exitDx=0;exitDy=0;entryX=0;entryY=0.75;entryDx=0;entryDy=0;" edge="1" parent="1" source="wCdDEIBs15aJ1-fx2VtD-78" target="wCdDEIBs15aJ1-fx2VtD-77">
          <mxGeometry width="50" height="50" relative="1" as="geometry">
            <mxPoint x="430" y="390" as="sourcePoint" />
            <mxPoint x="480" y="340" as="targetPoint" />
          </mxGeometry>
        </mxCell>
        <mxCell id="wCdDEIBs15aJ1-fx2VtD-80" value="" style="endArrow=classic;html=1;rounded=0;exitX=1;exitY=0.75;exitDx=0;exitDy=0;" edge="1" parent="1" source="wCdDEIBs15aJ1-fx2VtD-78">
          <mxGeometry width="50" height="50" relative="1" as="geometry">
            <mxPoint x="430" y="390" as="sourcePoint" />
            <mxPoint x="330" y="290" as="targetPoint" />
          </mxGeometry>
        </mxCell>
        <mxCell id="wCdDEIBs15aJ1-fx2VtD-90" value="" style="endArrow=classic;startArrow=classic;html=1;rounded=0;strokeWidth=1;startSize=1;endSize=1;" edge="1" parent="1">
          <mxGeometry width="50" height="50" relative="1" as="geometry">
            <mxPoint x="260" y="720" as="sourcePoint" />
            <mxPoint x="260" y="650" as="targetPoint" />
          </mxGeometry>
        </mxCell>
        <mxCell id="wCdDEIBs15aJ1-fx2VtD-91" value="" style="endArrow=none;html=1;rounded=0;dashed=1;dashPattern=1 2;" edge="1" parent="1">
          <mxGeometry width="50" height="50" relative="1" as="geometry">
            <mxPoint x="271" y="720" as="sourcePoint" />
            <mxPoint x="251" y="720" as="targetPoint" />
          </mxGeometry>
        </mxCell>
        <mxCell id="wCdDEIBs15aJ1-fx2VtD-92" value="" style="endArrow=none;html=1;rounded=0;dashed=1;dashPattern=1 2;" edge="1" parent="1">
          <mxGeometry width="50" height="50" relative="1" as="geometry">
            <mxPoint x="271" y="650" as="sourcePoint" />
            <mxPoint x="251" y="650" as="targetPoint" />
          </mxGeometry>
        </mxCell>
        <mxCell id="wCdDEIBs15aJ1-fx2VtD-93" value="70" style="text;html=1;align=center;verticalAlign=middle;whiteSpace=wrap;rounded=0;rotation=-90;" vertex="1" parent="1">
          <mxGeometry x="210" y="670" width="60" height="30" as="geometry" />
        </mxCell>
        <mxCell id="wCdDEIBs15aJ1-fx2VtD-117" value="" style="group;dashed=1;dashPattern=12 12;" vertex="1" connectable="0" parent="1">
          <mxGeometry x="200" y="970" width="360" height="190" as="geometry" />
        </mxCell>
        <mxCell id="wCdDEIBs15aJ1-fx2VtD-94" value="" style="endArrow=none;html=1;rounded=0;dashed=1;dashPattern=8 4 1 4;" edge="1" parent="wCdDEIBs15aJ1-fx2VtD-117">
          <mxGeometry width="50" height="50" relative="1" as="geometry">
            <mxPoint y="170" as="sourcePoint" />
            <mxPoint x="294.54545454545456" y="170" as="targetPoint" />
          </mxGeometry>
        </mxCell>
        <mxCell id="wCdDEIBs15aJ1-fx2VtD-95" value="" style="endArrow=none;html=1;rounded=0;dashed=1;dashPattern=8 4 1 4;" edge="1" parent="wCdDEIBs15aJ1-fx2VtD-117">
          <mxGeometry width="50" height="50" relative="1" as="geometry">
            <mxPoint x="65.45454545454547" y="94.44444444444443" as="sourcePoint" />
            <mxPoint x="360" y="94.44444444444443" as="targetPoint" />
          </mxGeometry>
        </mxCell>
        <mxCell id="wCdDEIBs15aJ1-fx2VtD-96" value="" style="endArrow=none;html=1;rounded=0;dashed=1;dashPattern=8 4 1 4;" edge="1" parent="wCdDEIBs15aJ1-fx2VtD-117">
          <mxGeometry width="50" height="50" relative="1" as="geometry">
            <mxPoint y="170" as="sourcePoint" />
            <mxPoint y="75.55555555555556" as="targetPoint" />
          </mxGeometry>
        </mxCell>
        <mxCell id="wCdDEIBs15aJ1-fx2VtD-97" value="" style="endArrow=none;html=1;rounded=0;dashed=1;dashPattern=8 4 1 4;" edge="1" parent="wCdDEIBs15aJ1-fx2VtD-117">
          <mxGeometry width="50" height="50" relative="1" as="geometry">
            <mxPoint x="294.54545454545456" y="170" as="sourcePoint" />
            <mxPoint x="294.54545454545456" y="75.55555555555556" as="targetPoint" />
          </mxGeometry>
        </mxCell>
        <mxCell id="wCdDEIBs15aJ1-fx2VtD-98" value="" style="endArrow=none;html=1;rounded=0;dashed=1;dashPattern=8 4 1 4;" edge="1" parent="wCdDEIBs15aJ1-fx2VtD-117">
          <mxGeometry width="50" height="50" relative="1" as="geometry">
            <mxPoint y="75.55555555555556" as="sourcePoint" />
            <mxPoint x="294.54545454545456" y="75.55555555555556" as="targetPoint" />
          </mxGeometry>
        </mxCell>
        <mxCell id="wCdDEIBs15aJ1-fx2VtD-99" value="" style="endArrow=none;html=1;rounded=0;dashed=1;dashPattern=8 4 1 4;" edge="1" parent="wCdDEIBs15aJ1-fx2VtD-117">
          <mxGeometry width="50" height="50" relative="1" as="geometry">
            <mxPoint y="75.55555555555556" as="sourcePoint" />
            <mxPoint x="65.45454545454547" as="targetPoint" />
          </mxGeometry>
        </mxCell>
        <mxCell id="wCdDEIBs15aJ1-fx2VtD-100" value="" style="endArrow=none;html=1;rounded=0;dashed=1;dashPattern=8 4 1 4;" edge="1" parent="wCdDEIBs15aJ1-fx2VtD-117">
          <mxGeometry width="50" height="50" relative="1" as="geometry">
            <mxPoint x="294.54545454545456" y="75.55555555555556" as="sourcePoint" />
            <mxPoint x="360" as="targetPoint" />
          </mxGeometry>
        </mxCell>
        <mxCell id="wCdDEIBs15aJ1-fx2VtD-101" value="" style="endArrow=none;html=1;rounded=0;" edge="1" parent="wCdDEIBs15aJ1-fx2VtD-117">
          <mxGeometry width="50" height="50" relative="1" as="geometry">
            <mxPoint x="360" y="94.44444444444443" as="sourcePoint" />
            <mxPoint x="360" as="targetPoint" />
          </mxGeometry>
        </mxCell>
        <mxCell id="wCdDEIBs15aJ1-fx2VtD-107" value="" style="endArrow=none;html=1;rounded=0;dashed=1;dashPattern=8 4 1 4;" edge="1" parent="wCdDEIBs15aJ1-fx2VtD-117">
          <mxGeometry width="50" height="50" relative="1" as="geometry">
            <mxPoint x="65.45454545454547" y="94.44444444444443" as="sourcePoint" />
            <mxPoint x="65.45454545454547" as="targetPoint" />
          </mxGeometry>
        </mxCell>
        <mxCell id="wCdDEIBs15aJ1-fx2VtD-108" value="" style="endArrow=none;html=1;rounded=0;dashed=1;dashPattern=8 4 1 4;" edge="1" parent="wCdDEIBs15aJ1-fx2VtD-117">
          <mxGeometry width="50" height="50" relative="1" as="geometry">
            <mxPoint x="65.45454545454547" as="sourcePoint" />
            <mxPoint x="360" as="targetPoint" />
          </mxGeometry>
        </mxCell>
        <mxCell id="wCdDEIBs15aJ1-fx2VtD-109" value="" style="endArrow=none;html=1;rounded=0;dashed=1;dashPattern=8 4 1 4;" edge="1" parent="wCdDEIBs15aJ1-fx2VtD-117">
          <mxGeometry width="50" height="50" relative="1" as="geometry">
            <mxPoint x="294.54545454545456" y="170" as="sourcePoint" />
            <mxPoint x="360" y="94.44444444444443" as="targetPoint" />
          </mxGeometry>
        </mxCell>
        <mxCell id="wCdDEIBs15aJ1-fx2VtD-110" value="" style="endArrow=none;html=1;rounded=0;dashed=1;dashPattern=8 4 1 4;" edge="1" parent="wCdDEIBs15aJ1-fx2VtD-117">
          <mxGeometry width="50" height="50" relative="1" as="geometry">
            <mxPoint y="170" as="sourcePoint" />
            <mxPoint x="65.45454545454547" y="94.44444444444443" as="targetPoint" />
          </mxGeometry>
        </mxCell>
        <mxCell id="wCdDEIBs15aJ1-fx2VtD-111" value="" style="rounded=0;whiteSpace=wrap;html=1;fillColor=none;" vertex="1" parent="wCdDEIBs15aJ1-fx2VtD-117">
          <mxGeometry x="104.72727272727273" y="37.77777777777778" width="196.36363636363637" height="18.88888888888889" as="geometry" />
        </mxCell>
        <mxCell id="wCdDEIBs15aJ1-fx2VtD-186" value="" style="group" vertex="1" connectable="0" parent="wCdDEIBs15aJ1-fx2VtD-117">
          <mxGeometry x="101" y="45" width="180" height="52" as="geometry" />
        </mxCell>
        <mxCell id="wCdDEIBs15aJ1-fx2VtD-116" value="" style="group" vertex="1" connectable="0" parent="wCdDEIBs15aJ1-fx2VtD-186">
          <mxGeometry y="20" width="180" height="32" as="geometry" />
        </mxCell>
        <mxCell id="wCdDEIBs15aJ1-fx2VtD-112" value="" style="endArrow=none;html=1;rounded=0;" edge="1" parent="wCdDEIBs15aJ1-fx2VtD-116">
          <mxGeometry width="50" height="50" relative="1" as="geometry">
            <mxPoint x="-10" y="40" as="sourcePoint" />
            <mxPoint x="140" y="40" as="targetPoint" />
            <Array as="points">
              <mxPoint x="70" y="40" />
            </Array>
          </mxGeometry>
        </mxCell>
        <mxCell id="wCdDEIBs15aJ1-fx2VtD-113" value="" style="endArrow=none;html=1;rounded=0;" edge="1" parent="wCdDEIBs15aJ1-fx2VtD-116">
          <mxGeometry width="50" height="50" relative="1" as="geometry">
            <mxPoint x="32.727272727272734" as="sourcePoint" />
            <mxPoint x="180" as="targetPoint" />
          </mxGeometry>
        </mxCell>
        <mxCell id="wCdDEIBs15aJ1-fx2VtD-114" value="" style="endArrow=none;html=1;rounded=0;" edge="1" parent="wCdDEIBs15aJ1-fx2VtD-116">
          <mxGeometry width="50" height="50" relative="1" as="geometry">
            <mxPoint x="140" y="40" as="sourcePoint" />
            <mxPoint x="180" as="targetPoint" />
          </mxGeometry>
        </mxCell>
        <mxCell id="wCdDEIBs15aJ1-fx2VtD-115" value="" style="endArrow=none;html=1;rounded=0;" edge="1" parent="wCdDEIBs15aJ1-fx2VtD-116">
          <mxGeometry width="50" height="50" relative="1" as="geometry">
            <mxPoint x="-10" y="40" as="sourcePoint" />
            <mxPoint x="32.727272727272734" as="targetPoint" />
          </mxGeometry>
        </mxCell>
        <mxCell id="wCdDEIBs15aJ1-fx2VtD-118" value="" style="endArrow=none;html=1;rounded=0;" edge="1" parent="wCdDEIBs15aJ1-fx2VtD-116">
          <mxGeometry width="50" height="50" relative="1" as="geometry">
            <mxPoint x="40" y="10" as="sourcePoint" />
            <mxPoint x="40" y="-10" as="targetPoint" />
          </mxGeometry>
        </mxCell>
        <mxCell id="wCdDEIBs15aJ1-fx2VtD-120" value="" style="endArrow=none;html=1;rounded=0;" edge="1" parent="wCdDEIBs15aJ1-fx2VtD-116">
          <mxGeometry width="50" height="50" relative="1" as="geometry">
            <mxPoint x="50" y="10" as="sourcePoint" />
            <mxPoint x="50" y="-10" as="targetPoint" />
          </mxGeometry>
        </mxCell>
        <mxCell id="wCdDEIBs15aJ1-fx2VtD-121" value="" style="endArrow=none;html=1;rounded=0;" edge="1" parent="wCdDEIBs15aJ1-fx2VtD-116">
          <mxGeometry width="50" height="50" relative="1" as="geometry">
            <mxPoint x="50" y="-10" as="sourcePoint" />
            <mxPoint x="60" y="-20" as="targetPoint" />
          </mxGeometry>
        </mxCell>
        <mxCell id="wCdDEIBs15aJ1-fx2VtD-122" value="" style="endArrow=none;html=1;rounded=0;" edge="1" parent="wCdDEIBs15aJ1-fx2VtD-116">
          <mxGeometry width="50" height="50" relative="1" as="geometry">
            <mxPoint x="60" y="10" as="sourcePoint" />
            <mxPoint x="60" y="-10" as="targetPoint" />
          </mxGeometry>
        </mxCell>
        <mxCell id="wCdDEIBs15aJ1-fx2VtD-123" value="" style="endArrow=none;html=1;rounded=0;" edge="1" parent="wCdDEIBs15aJ1-fx2VtD-116">
          <mxGeometry width="50" height="50" relative="1" as="geometry">
            <mxPoint x="60" y="-10" as="sourcePoint" />
            <mxPoint x="70" y="-20" as="targetPoint" />
          </mxGeometry>
        </mxCell>
        <mxCell id="wCdDEIBs15aJ1-fx2VtD-124" value="" style="endArrow=none;html=1;rounded=0;" edge="1" parent="wCdDEIBs15aJ1-fx2VtD-116">
          <mxGeometry width="50" height="50" relative="1" as="geometry">
            <mxPoint x="70" y="10" as="sourcePoint" />
            <mxPoint x="70" y="-10" as="targetPoint" />
          </mxGeometry>
        </mxCell>
        <mxCell id="wCdDEIBs15aJ1-fx2VtD-125" value="" style="endArrow=none;html=1;rounded=0;" edge="1" parent="wCdDEIBs15aJ1-fx2VtD-116">
          <mxGeometry width="50" height="50" relative="1" as="geometry">
            <mxPoint x="70" y="-10" as="sourcePoint" />
            <mxPoint x="80" y="-20" as="targetPoint" />
          </mxGeometry>
        </mxCell>
        <mxCell id="wCdDEIBs15aJ1-fx2VtD-126" value="" style="endArrow=none;html=1;rounded=0;" edge="1" parent="wCdDEIBs15aJ1-fx2VtD-116">
          <mxGeometry width="50" height="50" relative="1" as="geometry">
            <mxPoint x="80" y="10" as="sourcePoint" />
            <mxPoint x="80" y="-10" as="targetPoint" />
          </mxGeometry>
        </mxCell>
        <mxCell id="wCdDEIBs15aJ1-fx2VtD-127" value="" style="endArrow=none;html=1;rounded=0;" edge="1" parent="wCdDEIBs15aJ1-fx2VtD-116">
          <mxGeometry width="50" height="50" relative="1" as="geometry">
            <mxPoint x="90" y="10" as="sourcePoint" />
            <mxPoint x="90" y="-10" as="targetPoint" />
          </mxGeometry>
        </mxCell>
        <mxCell id="wCdDEIBs15aJ1-fx2VtD-128" value="" style="endArrow=none;html=1;rounded=0;" edge="1" parent="wCdDEIBs15aJ1-fx2VtD-116">
          <mxGeometry width="50" height="50" relative="1" as="geometry">
            <mxPoint x="90" y="-10" as="sourcePoint" />
            <mxPoint x="100" y="-20" as="targetPoint" />
          </mxGeometry>
        </mxCell>
        <mxCell id="wCdDEIBs15aJ1-fx2VtD-129" value="" style="endArrow=none;html=1;rounded=0;" edge="1" parent="wCdDEIBs15aJ1-fx2VtD-116">
          <mxGeometry width="50" height="50" relative="1" as="geometry">
            <mxPoint x="100" y="10" as="sourcePoint" />
            <mxPoint x="100" y="-10" as="targetPoint" />
          </mxGeometry>
        </mxCell>
        <mxCell id="wCdDEIBs15aJ1-fx2VtD-130" value="" style="endArrow=none;html=1;rounded=0;" edge="1" parent="wCdDEIBs15aJ1-fx2VtD-116">
          <mxGeometry width="50" height="50" relative="1" as="geometry">
            <mxPoint x="100" y="-10" as="sourcePoint" />
            <mxPoint x="110" y="-20" as="targetPoint" />
          </mxGeometry>
        </mxCell>
        <mxCell id="wCdDEIBs15aJ1-fx2VtD-131" value="" style="endArrow=none;html=1;rounded=0;" edge="1" parent="wCdDEIBs15aJ1-fx2VtD-116">
          <mxGeometry width="50" height="50" relative="1" as="geometry">
            <mxPoint x="110" y="10" as="sourcePoint" />
            <mxPoint x="110" y="-10" as="targetPoint" />
          </mxGeometry>
        </mxCell>
        <mxCell id="wCdDEIBs15aJ1-fx2VtD-132" value="" style="endArrow=none;html=1;rounded=0;" edge="1" parent="wCdDEIBs15aJ1-fx2VtD-116">
          <mxGeometry width="50" height="50" relative="1" as="geometry">
            <mxPoint x="110" y="-10" as="sourcePoint" />
            <mxPoint x="120" y="-20" as="targetPoint" />
          </mxGeometry>
        </mxCell>
        <mxCell id="wCdDEIBs15aJ1-fx2VtD-133" value="" style="endArrow=none;html=1;rounded=0;" edge="1" parent="wCdDEIBs15aJ1-fx2VtD-116">
          <mxGeometry width="50" height="50" relative="1" as="geometry">
            <mxPoint x="80" y="-10" as="sourcePoint" />
            <mxPoint x="90" y="-20" as="targetPoint" />
          </mxGeometry>
        </mxCell>
        <mxCell id="wCdDEIBs15aJ1-fx2VtD-134" value="" style="endArrow=none;html=1;rounded=0;" edge="1" parent="wCdDEIBs15aJ1-fx2VtD-116">
          <mxGeometry width="50" height="50" relative="1" as="geometry">
            <mxPoint x="120" y="10" as="sourcePoint" />
            <mxPoint x="120" y="-10" as="targetPoint" />
          </mxGeometry>
        </mxCell>
        <mxCell id="wCdDEIBs15aJ1-fx2VtD-135" value="" style="endArrow=none;html=1;rounded=0;" edge="1" parent="wCdDEIBs15aJ1-fx2VtD-116">
          <mxGeometry width="50" height="50" relative="1" as="geometry">
            <mxPoint x="130" y="10" as="sourcePoint" />
            <mxPoint x="130" y="-10" as="targetPoint" />
          </mxGeometry>
        </mxCell>
        <mxCell id="wCdDEIBs15aJ1-fx2VtD-136" value="" style="endArrow=none;html=1;rounded=0;" edge="1" parent="wCdDEIBs15aJ1-fx2VtD-116">
          <mxGeometry width="50" height="50" relative="1" as="geometry">
            <mxPoint x="130" y="-10" as="sourcePoint" />
            <mxPoint x="140" y="-20" as="targetPoint" />
          </mxGeometry>
        </mxCell>
        <mxCell id="wCdDEIBs15aJ1-fx2VtD-137" value="" style="endArrow=none;html=1;rounded=0;" edge="1" parent="wCdDEIBs15aJ1-fx2VtD-116">
          <mxGeometry width="50" height="50" relative="1" as="geometry">
            <mxPoint x="140" y="10" as="sourcePoint" />
            <mxPoint x="140" y="-10" as="targetPoint" />
          </mxGeometry>
        </mxCell>
        <mxCell id="wCdDEIBs15aJ1-fx2VtD-138" value="" style="endArrow=none;html=1;rounded=0;" edge="1" parent="wCdDEIBs15aJ1-fx2VtD-116">
          <mxGeometry width="50" height="50" relative="1" as="geometry">
            <mxPoint x="140" y="-10" as="sourcePoint" />
            <mxPoint x="150" y="-20" as="targetPoint" />
          </mxGeometry>
        </mxCell>
        <mxCell id="wCdDEIBs15aJ1-fx2VtD-139" value="" style="endArrow=none;html=1;rounded=0;" edge="1" parent="wCdDEIBs15aJ1-fx2VtD-116">
          <mxGeometry width="50" height="50" relative="1" as="geometry">
            <mxPoint x="150" y="10" as="sourcePoint" />
            <mxPoint x="150" y="-10" as="targetPoint" />
          </mxGeometry>
        </mxCell>
        <mxCell id="wCdDEIBs15aJ1-fx2VtD-140" value="" style="endArrow=none;html=1;rounded=0;" edge="1" parent="wCdDEIBs15aJ1-fx2VtD-116">
          <mxGeometry width="50" height="50" relative="1" as="geometry">
            <mxPoint x="150" y="-10" as="sourcePoint" />
            <mxPoint x="160" y="-20" as="targetPoint" />
          </mxGeometry>
        </mxCell>
        <mxCell id="wCdDEIBs15aJ1-fx2VtD-141" value="" style="endArrow=none;html=1;rounded=0;" edge="1" parent="wCdDEIBs15aJ1-fx2VtD-116">
          <mxGeometry width="50" height="50" relative="1" as="geometry">
            <mxPoint x="120" y="-10" as="sourcePoint" />
            <mxPoint x="130" y="-20" as="targetPoint" />
          </mxGeometry>
        </mxCell>
        <mxCell id="wCdDEIBs15aJ1-fx2VtD-174" value="" style="group" vertex="1" connectable="0" parent="wCdDEIBs15aJ1-fx2VtD-116">
          <mxGeometry x="100" y="14" width="35" height="16" as="geometry" />
        </mxCell>
        <mxCell id="wCdDEIBs15aJ1-fx2VtD-166" value="" style="endArrow=none;html=1;rounded=0;" edge="1" parent="wCdDEIBs15aJ1-fx2VtD-174">
          <mxGeometry width="50" height="50" relative="1" as="geometry">
            <mxPoint x="5" y="10" as="sourcePoint" />
            <mxPoint x="5" as="targetPoint" />
          </mxGeometry>
        </mxCell>
        <mxCell id="wCdDEIBs15aJ1-fx2VtD-167" value="" style="endArrow=none;html=1;rounded=0;" edge="1" parent="wCdDEIBs15aJ1-fx2VtD-174">
          <mxGeometry width="50" height="50" relative="1" as="geometry">
            <mxPoint x="15" y="10" as="sourcePoint" />
            <mxPoint x="15" as="targetPoint" />
          </mxGeometry>
        </mxCell>
        <mxCell id="wCdDEIBs15aJ1-fx2VtD-168" value="" style="endArrow=none;html=1;rounded=0;" edge="1" parent="wCdDEIBs15aJ1-fx2VtD-174">
          <mxGeometry width="50" height="50" relative="1" as="geometry">
            <mxPoint x="25" y="10" as="sourcePoint" />
            <mxPoint x="25" as="targetPoint" />
          </mxGeometry>
        </mxCell>
        <mxCell id="wCdDEIBs15aJ1-fx2VtD-169" value="" style="endArrow=none;html=1;rounded=0;" edge="1" parent="wCdDEIBs15aJ1-fx2VtD-174">
          <mxGeometry width="50" height="50" relative="1" as="geometry">
            <mxPoint x="35" y="10" as="sourcePoint" />
            <mxPoint x="35" as="targetPoint" />
          </mxGeometry>
        </mxCell>
        <mxCell id="wCdDEIBs15aJ1-fx2VtD-170" value="" style="endArrow=none;html=1;rounded=0;" edge="1" parent="wCdDEIBs15aJ1-fx2VtD-174">
          <mxGeometry width="50" height="50" relative="1" as="geometry">
            <mxPoint y="16" as="sourcePoint" />
            <mxPoint y="6" as="targetPoint" />
          </mxGeometry>
        </mxCell>
        <mxCell id="wCdDEIBs15aJ1-fx2VtD-171" value="" style="endArrow=none;html=1;rounded=0;" edge="1" parent="wCdDEIBs15aJ1-fx2VtD-174">
          <mxGeometry width="50" height="50" relative="1" as="geometry">
            <mxPoint x="10" y="16" as="sourcePoint" />
            <mxPoint x="10" y="6" as="targetPoint" />
          </mxGeometry>
        </mxCell>
        <mxCell id="wCdDEIBs15aJ1-fx2VtD-172" value="" style="endArrow=none;html=1;rounded=0;" edge="1" parent="wCdDEIBs15aJ1-fx2VtD-174">
          <mxGeometry width="50" height="50" relative="1" as="geometry">
            <mxPoint x="20" y="16" as="sourcePoint" />
            <mxPoint x="20" y="6" as="targetPoint" />
          </mxGeometry>
        </mxCell>
        <mxCell id="wCdDEIBs15aJ1-fx2VtD-173" value="" style="endArrow=none;html=1;rounded=0;" edge="1" parent="wCdDEIBs15aJ1-fx2VtD-174">
          <mxGeometry width="50" height="50" relative="1" as="geometry">
            <mxPoint x="30" y="16" as="sourcePoint" />
            <mxPoint x="30" y="6" as="targetPoint" />
          </mxGeometry>
        </mxCell>
        <mxCell id="wCdDEIBs15aJ1-fx2VtD-185" value="" style="group" vertex="1" connectable="0" parent="wCdDEIBs15aJ1-fx2VtD-116">
          <mxGeometry x="46" y="3" width="25" height="32" as="geometry" />
        </mxCell>
        <mxCell id="wCdDEIBs15aJ1-fx2VtD-175" value="" style="rounded=0;whiteSpace=wrap;html=1;fillColor=none;" vertex="1" parent="wCdDEIBs15aJ1-fx2VtD-185">
          <mxGeometry y="12" width="20" height="20" as="geometry" />
        </mxCell>
        <mxCell id="wCdDEIBs15aJ1-fx2VtD-176" value="" style="rounded=0;whiteSpace=wrap;html=1;fillColor=none;" vertex="1" parent="wCdDEIBs15aJ1-fx2VtD-185">
          <mxGeometry x="5" y="7" width="20" height="20" as="geometry" />
        </mxCell>
        <mxCell id="wCdDEIBs15aJ1-fx2VtD-177" value="" style="endArrow=none;html=1;rounded=0;entryX=0;entryY=0;entryDx=0;entryDy=0;exitX=0;exitY=0;exitDx=0;exitDy=0;" edge="1" parent="wCdDEIBs15aJ1-fx2VtD-185" source="wCdDEIBs15aJ1-fx2VtD-175" target="wCdDEIBs15aJ1-fx2VtD-176">
          <mxGeometry width="50" height="50" relative="1" as="geometry">
            <mxPoint y="32" as="sourcePoint" />
            <mxPoint x="50" y="-18" as="targetPoint" />
          </mxGeometry>
        </mxCell>
        <mxCell id="wCdDEIBs15aJ1-fx2VtD-178" value="" style="endArrow=none;html=1;rounded=0;entryX=0;entryY=0;entryDx=0;entryDy=0;exitX=0;exitY=0;exitDx=0;exitDy=0;" edge="1" parent="wCdDEIBs15aJ1-fx2VtD-185">
          <mxGeometry width="50" height="50" relative="1" as="geometry">
            <mxPoint x="20" y="12" as="sourcePoint" />
            <mxPoint x="25" y="7" as="targetPoint" />
          </mxGeometry>
        </mxCell>
        <mxCell id="wCdDEIBs15aJ1-fx2VtD-180" value="" style="endArrow=none;html=1;rounded=0;entryX=0;entryY=0;entryDx=0;entryDy=0;exitX=0;exitY=0;exitDx=0;exitDy=0;" edge="1" parent="wCdDEIBs15aJ1-fx2VtD-185">
          <mxGeometry width="50" height="50" relative="1" as="geometry">
            <mxPoint x="20" y="32" as="sourcePoint" />
            <mxPoint x="25" y="27" as="targetPoint" />
          </mxGeometry>
        </mxCell>
        <mxCell id="wCdDEIBs15aJ1-fx2VtD-181" value="" style="endArrow=none;html=1;rounded=0;entryX=0;entryY=0;entryDx=0;entryDy=0;exitX=0;exitY=0;exitDx=0;exitDy=0;" edge="1" parent="wCdDEIBs15aJ1-fx2VtD-185">
          <mxGeometry width="50" height="50" relative="1" as="geometry">
            <mxPoint y="32" as="sourcePoint" />
            <mxPoint x="5" y="27" as="targetPoint" />
          </mxGeometry>
        </mxCell>
        <mxCell id="wCdDEIBs15aJ1-fx2VtD-183" value="" style="endArrow=none;html=1;rounded=0;" edge="1" parent="wCdDEIBs15aJ1-fx2VtD-185">
          <mxGeometry width="50" height="50" relative="1" as="geometry">
            <mxPoint x="9" y="10" as="sourcePoint" />
            <mxPoint x="9" as="targetPoint" />
          </mxGeometry>
        </mxCell>
        <mxCell id="wCdDEIBs15aJ1-fx2VtD-184" value="" style="endArrow=none;html=1;rounded=0;" edge="1" parent="wCdDEIBs15aJ1-fx2VtD-185">
          <mxGeometry width="50" height="50" relative="1" as="geometry">
            <mxPoint x="18" y="10" as="sourcePoint" />
            <mxPoint x="18" as="targetPoint" />
          </mxGeometry>
        </mxCell>
        <mxCell id="wCdDEIBs15aJ1-fx2VtD-119" value="" style="endArrow=none;html=1;rounded=0;" edge="1" parent="wCdDEIBs15aJ1-fx2VtD-186">
          <mxGeometry width="50" height="50" relative="1" as="geometry">
            <mxPoint x="40" y="10" as="sourcePoint" />
            <mxPoint x="50" as="targetPoint" />
          </mxGeometry>
        </mxCell>
        <mxCell id="wCdDEIBs15aJ1-fx2VtD-194" value="" style="group" vertex="1" connectable="0" parent="wCdDEIBs15aJ1-fx2VtD-117">
          <mxGeometry x="48" y="120" width="210" height="70" as="geometry" />
        </mxCell>
        <mxCell id="wCdDEIBs15aJ1-fx2VtD-190" value="" style="endArrow=none;html=1;rounded=0;" edge="1" parent="wCdDEIBs15aJ1-fx2VtD-194">
          <mxGeometry width="50" height="50" relative="1" as="geometry">
            <mxPoint y="40" as="sourcePoint" />
            <mxPoint x="163.21243523316062" y="40" as="targetPoint" />
            <Array as="points">
              <mxPoint x="87.04663212435233" y="40" />
            </Array>
          </mxGeometry>
        </mxCell>
        <mxCell id="wCdDEIBs15aJ1-fx2VtD-191" value="" style="endArrow=none;html=1;rounded=0;" edge="1" parent="wCdDEIBs15aJ1-fx2VtD-194">
          <mxGeometry width="50" height="50" relative="1" as="geometry">
            <mxPoint y="40" as="sourcePoint" />
            <mxPoint x="46.49081488459729" as="targetPoint" />
          </mxGeometry>
        </mxCell>
        <mxCell id="wCdDEIBs15aJ1-fx2VtD-192" value="" style="endArrow=none;html=1;rounded=0;" edge="1" parent="wCdDEIBs15aJ1-fx2VtD-194">
          <mxGeometry width="50" height="50" relative="1" as="geometry">
            <mxPoint x="46.78756476683938" as="sourcePoint" />
            <mxPoint x="210" as="targetPoint" />
            <Array as="points">
              <mxPoint x="133.8341968911917" />
            </Array>
          </mxGeometry>
        </mxCell>
        <mxCell id="wCdDEIBs15aJ1-fx2VtD-193" value="" style="endArrow=none;html=1;rounded=0;" edge="1" parent="wCdDEIBs15aJ1-fx2VtD-194">
          <mxGeometry width="50" height="50" relative="1" as="geometry">
            <mxPoint x="163.21243523316062" y="40" as="sourcePoint" />
            <mxPoint x="209.7032501177579" as="targetPoint" />
          </mxGeometry>
        </mxCell>
        <mxCell id="wCdDEIBs15aJ1-fx2VtD-273" value="" style="group" vertex="1" connectable="0" parent="wCdDEIBs15aJ1-fx2VtD-194">
          <mxGeometry x="173" y="1" width="25" height="28" as="geometry" />
        </mxCell>
        <mxCell id="wCdDEIBs15aJ1-fx2VtD-260" value="" style="group;rotation=-180;" vertex="1" connectable="0" parent="wCdDEIBs15aJ1-fx2VtD-273">
          <mxGeometry x="5" width="15.5" height="28" as="geometry" />
        </mxCell>
        <mxCell id="wCdDEIBs15aJ1-fx2VtD-261" value="" style="endArrow=none;html=1;rounded=0;" edge="1" parent="wCdDEIBs15aJ1-fx2VtD-260">
          <mxGeometry width="50" height="50" relative="1" as="geometry">
            <mxPoint x="6" y="5.6" as="sourcePoint" />
            <mxPoint x="6" y="33.599999999999994" as="targetPoint" />
          </mxGeometry>
        </mxCell>
        <mxCell id="wCdDEIBs15aJ1-fx2VtD-262" value="" style="endArrow=none;html=1;rounded=0;" edge="1" parent="wCdDEIBs15aJ1-fx2VtD-260">
          <mxGeometry width="50" height="50" relative="1" as="geometry">
            <mxPoint x="11" y="5.6" as="sourcePoint" />
            <mxPoint x="1" y="5.6" as="targetPoint" />
          </mxGeometry>
        </mxCell>
        <mxCell id="wCdDEIBs15aJ1-fx2VtD-263" value="" style="endArrow=none;html=1;rounded=0;" edge="1" parent="wCdDEIBs15aJ1-fx2VtD-260">
          <mxGeometry width="50" height="50" relative="1" as="geometry">
            <mxPoint x="11" y="21" as="sourcePoint" />
            <mxPoint x="11" y="21" as="targetPoint" />
            <Array as="points">
              <mxPoint x="1" y="28" />
            </Array>
          </mxGeometry>
        </mxCell>
        <mxCell id="wCdDEIBs15aJ1-fx2VtD-264" value="" style="endArrow=none;html=1;rounded=0;" edge="1" parent="wCdDEIBs15aJ1-fx2VtD-260">
          <mxGeometry width="50" height="50" relative="1" as="geometry">
            <mxPoint x="11" y="23.799999999999997" as="sourcePoint" />
            <mxPoint x="11" y="23.799999999999997" as="targetPoint" />
            <Array as="points">
              <mxPoint x="1" y="30.799999999999997" />
            </Array>
          </mxGeometry>
        </mxCell>
        <mxCell id="wCdDEIBs15aJ1-fx2VtD-265" value="" style="endArrow=none;html=1;rounded=0;" edge="1" parent="wCdDEIBs15aJ1-fx2VtD-260">
          <mxGeometry width="50" height="50" relative="1" as="geometry">
            <mxPoint x="11" y="26.599999999999998" as="sourcePoint" />
            <mxPoint x="11" y="26.599999999999998" as="targetPoint" />
            <Array as="points">
              <mxPoint x="1" y="33.599999999999994" />
            </Array>
          </mxGeometry>
        </mxCell>
        <mxCell id="wCdDEIBs15aJ1-fx2VtD-266" value="" style="endArrow=none;html=1;rounded=0;" edge="1" parent="wCdDEIBs15aJ1-fx2VtD-260">
          <mxGeometry width="50" height="50" relative="1" as="geometry">
            <mxPoint x="11" y="18.2" as="sourcePoint" />
            <mxPoint x="11" y="18.2" as="targetPoint" />
            <Array as="points">
              <mxPoint x="1" y="25.2" />
            </Array>
          </mxGeometry>
        </mxCell>
        <mxCell id="wCdDEIBs15aJ1-fx2VtD-267" value="" style="endArrow=none;html=1;rounded=0;" edge="1" parent="wCdDEIBs15aJ1-fx2VtD-260">
          <mxGeometry width="50" height="50" relative="1" as="geometry">
            <mxPoint x="10" y="15.399999999999999" as="sourcePoint" />
            <mxPoint x="10" y="15.399999999999999" as="targetPoint" />
            <Array as="points">
              <mxPoint y="22.4" />
            </Array>
          </mxGeometry>
        </mxCell>
        <mxCell id="wCdDEIBs15aJ1-fx2VtD-268" value="" style="ellipse;whiteSpace=wrap;html=1;fillColor=none;" vertex="1" parent="wCdDEIBs15aJ1-fx2VtD-260">
          <mxGeometry x="-5" width="25.5" height="10" as="geometry" />
        </mxCell>
        <mxCell id="wCdDEIBs15aJ1-fx2VtD-269" value="" style="endArrow=none;html=1;rounded=0;entryX=0;entryY=0.5;entryDx=0;entryDy=0;dashed=1;dashPattern=1 1;" edge="1" parent="wCdDEIBs15aJ1-fx2VtD-260">
          <mxGeometry width="50" height="50" relative="1" as="geometry">
            <mxPoint x="20.44999999999999" y="11" as="sourcePoint" />
            <mxPoint x="20.44999999999999" y="5" as="targetPoint" />
          </mxGeometry>
        </mxCell>
        <mxCell id="wCdDEIBs15aJ1-fx2VtD-270" value="" style="endArrow=none;html=1;rounded=0;entryX=0;entryY=0.5;entryDx=0;entryDy=0;dashed=1;dashPattern=1 1;" edge="1" parent="wCdDEIBs15aJ1-fx2VtD-273" target="wCdDEIBs15aJ1-fx2VtD-268">
          <mxGeometry width="50" height="50" relative="1" as="geometry">
            <mxPoint y="11" as="sourcePoint" />
            <mxPoint x="48" y="-19" as="targetPoint" />
          </mxGeometry>
        </mxCell>
        <mxCell id="wCdDEIBs15aJ1-fx2VtD-271" value="" style="endArrow=none;html=1;rounded=0;dashed=1;dashPattern=1 1;" edge="1" parent="wCdDEIBs15aJ1-fx2VtD-273">
          <mxGeometry width="50" height="50" relative="1" as="geometry">
            <mxPoint y="21" as="sourcePoint" />
            <mxPoint y="11" as="targetPoint" />
          </mxGeometry>
        </mxCell>
        <mxCell id="wCdDEIBs15aJ1-fx2VtD-272" value="" style="endArrow=none;html=1;rounded=0;" edge="1" parent="wCdDEIBs15aJ1-fx2VtD-273">
          <mxGeometry width="50" height="50" relative="1" as="geometry">
            <mxPoint x="25" y="21" as="sourcePoint" />
            <mxPoint x="25" y="11" as="targetPoint" />
          </mxGeometry>
        </mxCell>
        <mxCell id="wCdDEIBs15aJ1-fx2VtD-287" value="" style="group;rotation=-180;" vertex="1" connectable="0" parent="wCdDEIBs15aJ1-fx2VtD-194">
          <mxGeometry x="47" y="1" width="15.5" height="28" as="geometry" />
        </mxCell>
        <mxCell id="wCdDEIBs15aJ1-fx2VtD-288" value="" style="endArrow=none;html=1;rounded=0;" edge="1" parent="wCdDEIBs15aJ1-fx2VtD-287">
          <mxGeometry width="50" height="50" relative="1" as="geometry">
            <mxPoint x="6" y="5.6" as="sourcePoint" />
            <mxPoint x="6" y="33.599999999999994" as="targetPoint" />
          </mxGeometry>
        </mxCell>
        <mxCell id="wCdDEIBs15aJ1-fx2VtD-289" value="" style="endArrow=none;html=1;rounded=0;" edge="1" parent="wCdDEIBs15aJ1-fx2VtD-287">
          <mxGeometry width="50" height="50" relative="1" as="geometry">
            <mxPoint x="11" y="5.6" as="sourcePoint" />
            <mxPoint x="1" y="5.6" as="targetPoint" />
          </mxGeometry>
        </mxCell>
        <mxCell id="wCdDEIBs15aJ1-fx2VtD-290" value="" style="endArrow=none;html=1;rounded=0;" edge="1" parent="wCdDEIBs15aJ1-fx2VtD-287">
          <mxGeometry width="50" height="50" relative="1" as="geometry">
            <mxPoint x="11" y="21" as="sourcePoint" />
            <mxPoint x="11" y="21" as="targetPoint" />
            <Array as="points">
              <mxPoint x="1" y="28" />
            </Array>
          </mxGeometry>
        </mxCell>
        <mxCell id="wCdDEIBs15aJ1-fx2VtD-291" value="" style="endArrow=none;html=1;rounded=0;" edge="1" parent="wCdDEIBs15aJ1-fx2VtD-287">
          <mxGeometry width="50" height="50" relative="1" as="geometry">
            <mxPoint x="11" y="23.799999999999997" as="sourcePoint" />
            <mxPoint x="11" y="23.799999999999997" as="targetPoint" />
            <Array as="points">
              <mxPoint x="1" y="30.799999999999997" />
            </Array>
          </mxGeometry>
        </mxCell>
        <mxCell id="wCdDEIBs15aJ1-fx2VtD-292" value="" style="endArrow=none;html=1;rounded=0;" edge="1" parent="wCdDEIBs15aJ1-fx2VtD-287">
          <mxGeometry width="50" height="50" relative="1" as="geometry">
            <mxPoint x="11" y="26.599999999999998" as="sourcePoint" />
            <mxPoint x="11" y="26.599999999999998" as="targetPoint" />
            <Array as="points">
              <mxPoint x="1" y="33.599999999999994" />
            </Array>
          </mxGeometry>
        </mxCell>
        <mxCell id="wCdDEIBs15aJ1-fx2VtD-293" value="" style="endArrow=none;html=1;rounded=0;" edge="1" parent="wCdDEIBs15aJ1-fx2VtD-287">
          <mxGeometry width="50" height="50" relative="1" as="geometry">
            <mxPoint x="11" y="18.2" as="sourcePoint" />
            <mxPoint x="11" y="18.2" as="targetPoint" />
            <Array as="points">
              <mxPoint x="1" y="25.2" />
            </Array>
          </mxGeometry>
        </mxCell>
        <mxCell id="wCdDEIBs15aJ1-fx2VtD-294" value="" style="endArrow=none;html=1;rounded=0;" edge="1" parent="wCdDEIBs15aJ1-fx2VtD-287">
          <mxGeometry width="50" height="50" relative="1" as="geometry">
            <mxPoint x="10" y="15.399999999999999" as="sourcePoint" />
            <mxPoint x="10" y="15.399999999999999" as="targetPoint" />
            <Array as="points">
              <mxPoint y="22.4" />
            </Array>
          </mxGeometry>
        </mxCell>
        <mxCell id="wCdDEIBs15aJ1-fx2VtD-295" value="" style="ellipse;whiteSpace=wrap;html=1;fillColor=none;" vertex="1" parent="wCdDEIBs15aJ1-fx2VtD-287">
          <mxGeometry x="-5" width="25.5" height="10" as="geometry" />
        </mxCell>
        <mxCell id="wCdDEIBs15aJ1-fx2VtD-296" value="" style="endArrow=none;html=1;rounded=0;entryX=0;entryY=0.5;entryDx=0;entryDy=0;dashed=1;dashPattern=1 1;" edge="1" parent="wCdDEIBs15aJ1-fx2VtD-287">
          <mxGeometry width="50" height="50" relative="1" as="geometry">
            <mxPoint x="20.44999999999999" y="11" as="sourcePoint" />
            <mxPoint x="20.44999999999999" y="5" as="targetPoint" />
          </mxGeometry>
        </mxCell>
        <mxCell id="wCdDEIBs15aJ1-fx2VtD-297" value="" style="endArrow=none;html=1;rounded=0;entryX=0;entryY=0.5;entryDx=0;entryDy=0;dashed=1;dashPattern=1 1;" edge="1" parent="wCdDEIBs15aJ1-fx2VtD-194" target="wCdDEIBs15aJ1-fx2VtD-295">
          <mxGeometry width="50" height="50" relative="1" as="geometry">
            <mxPoint x="42" y="12" as="sourcePoint" />
            <mxPoint x="90" y="-18" as="targetPoint" />
          </mxGeometry>
        </mxCell>
        <mxCell id="wCdDEIBs15aJ1-fx2VtD-298" value="" style="endArrow=none;html=1;rounded=0;dashed=1;dashPattern=1 1;" edge="1" parent="wCdDEIBs15aJ1-fx2VtD-194">
          <mxGeometry width="50" height="50" relative="1" as="geometry">
            <mxPoint x="42" y="22" as="sourcePoint" />
            <mxPoint x="42" y="12" as="targetPoint" />
          </mxGeometry>
        </mxCell>
        <mxCell id="wCdDEIBs15aJ1-fx2VtD-299" value="" style="endArrow=none;html=1;rounded=0;dashed=1;dashPattern=1 1;" edge="1" parent="wCdDEIBs15aJ1-fx2VtD-194">
          <mxGeometry width="50" height="50" relative="1" as="geometry">
            <mxPoint x="67" y="22" as="sourcePoint" />
            <mxPoint x="67" y="12" as="targetPoint" />
          </mxGeometry>
        </mxCell>
        <mxCell id="wCdDEIBs15aJ1-fx2VtD-188" value="" style="endArrow=classic;html=1;rounded=0;" edge="1" parent="1">
          <mxGeometry width="50" height="50" relative="1" as="geometry">
            <mxPoint x="160" y="1000" as="sourcePoint" />
            <mxPoint x="310" y="1060" as="targetPoint" />
          </mxGeometry>
        </mxCell>
        <mxCell id="wCdDEIBs15aJ1-fx2VtD-189" value="&lt;i&gt;I/O wrapper board&lt;/i&gt;" style="text;html=1;align=center;verticalAlign=middle;whiteSpace=wrap;rounded=0;" vertex="1" parent="1">
          <mxGeometry x="80" y="970" width="120" height="30" as="geometry" />
        </mxCell>
        <mxCell id="wCdDEIBs15aJ1-fx2VtD-216" value="" style="group;rotation=-180;" vertex="1" connectable="0" parent="1">
          <mxGeometry x="387" y="1119" width="15.5" height="28" as="geometry" />
        </mxCell>
        <mxCell id="wCdDEIBs15aJ1-fx2VtD-217" value="" style="endArrow=none;html=1;rounded=0;" edge="1" parent="wCdDEIBs15aJ1-fx2VtD-216">
          <mxGeometry width="50" height="50" relative="1" as="geometry">
            <mxPoint x="6" y="5.6" as="sourcePoint" />
            <mxPoint x="6" y="33.599999999999994" as="targetPoint" />
          </mxGeometry>
        </mxCell>
        <mxCell id="wCdDEIBs15aJ1-fx2VtD-218" value="" style="endArrow=none;html=1;rounded=0;" edge="1" parent="wCdDEIBs15aJ1-fx2VtD-216">
          <mxGeometry width="50" height="50" relative="1" as="geometry">
            <mxPoint x="11" y="5.6" as="sourcePoint" />
            <mxPoint x="1" y="5.6" as="targetPoint" />
          </mxGeometry>
        </mxCell>
        <mxCell id="wCdDEIBs15aJ1-fx2VtD-219" value="" style="endArrow=none;html=1;rounded=0;" edge="1" parent="wCdDEIBs15aJ1-fx2VtD-216">
          <mxGeometry width="50" height="50" relative="1" as="geometry">
            <mxPoint x="11" y="21" as="sourcePoint" />
            <mxPoint x="11" y="21" as="targetPoint" />
            <Array as="points">
              <mxPoint x="1" y="28" />
            </Array>
          </mxGeometry>
        </mxCell>
        <mxCell id="wCdDEIBs15aJ1-fx2VtD-220" value="" style="endArrow=none;html=1;rounded=0;" edge="1" parent="wCdDEIBs15aJ1-fx2VtD-216">
          <mxGeometry width="50" height="50" relative="1" as="geometry">
            <mxPoint x="11" y="23.799999999999997" as="sourcePoint" />
            <mxPoint x="11" y="23.799999999999997" as="targetPoint" />
            <Array as="points">
              <mxPoint x="1" y="30.799999999999997" />
            </Array>
          </mxGeometry>
        </mxCell>
        <mxCell id="wCdDEIBs15aJ1-fx2VtD-221" value="" style="endArrow=none;html=1;rounded=0;" edge="1" parent="wCdDEIBs15aJ1-fx2VtD-216">
          <mxGeometry width="50" height="50" relative="1" as="geometry">
            <mxPoint x="11" y="26.599999999999998" as="sourcePoint" />
            <mxPoint x="11" y="26.599999999999998" as="targetPoint" />
            <Array as="points">
              <mxPoint x="1" y="33.599999999999994" />
            </Array>
          </mxGeometry>
        </mxCell>
        <mxCell id="wCdDEIBs15aJ1-fx2VtD-222" value="" style="endArrow=none;html=1;rounded=0;" edge="1" parent="wCdDEIBs15aJ1-fx2VtD-216">
          <mxGeometry width="50" height="50" relative="1" as="geometry">
            <mxPoint x="11" y="18.2" as="sourcePoint" />
            <mxPoint x="11" y="18.2" as="targetPoint" />
            <Array as="points">
              <mxPoint x="1" y="25.2" />
            </Array>
          </mxGeometry>
        </mxCell>
        <mxCell id="wCdDEIBs15aJ1-fx2VtD-223" value="" style="endArrow=none;html=1;rounded=0;" edge="1" parent="wCdDEIBs15aJ1-fx2VtD-216">
          <mxGeometry width="50" height="50" relative="1" as="geometry">
            <mxPoint x="10" y="15.399999999999999" as="sourcePoint" />
            <mxPoint x="10" y="15.399999999999999" as="targetPoint" />
            <Array as="points">
              <mxPoint y="22.4" />
            </Array>
          </mxGeometry>
        </mxCell>
        <mxCell id="wCdDEIBs15aJ1-fx2VtD-225" value="" style="ellipse;whiteSpace=wrap;html=1;fillColor=none;" vertex="1" parent="wCdDEIBs15aJ1-fx2VtD-216">
          <mxGeometry x="-5" width="25.5" height="10" as="geometry" />
        </mxCell>
        <mxCell id="wCdDEIBs15aJ1-fx2VtD-229" value="" style="endArrow=none;html=1;rounded=0;entryX=0;entryY=0.5;entryDx=0;entryDy=0;dashed=1;dashPattern=1 1;" edge="1" parent="wCdDEIBs15aJ1-fx2VtD-216">
          <mxGeometry width="50" height="50" relative="1" as="geometry">
            <mxPoint x="20.44999999999999" y="11" as="sourcePoint" />
            <mxPoint x="20.44999999999999" y="5" as="targetPoint" />
          </mxGeometry>
        </mxCell>
        <mxCell id="wCdDEIBs15aJ1-fx2VtD-227" value="" style="endArrow=none;html=1;rounded=0;entryX=0;entryY=0.5;entryDx=0;entryDy=0;dashed=1;dashPattern=1 1;" edge="1" parent="1" target="wCdDEIBs15aJ1-fx2VtD-225">
          <mxGeometry width="50" height="50" relative="1" as="geometry">
            <mxPoint x="382" y="1130" as="sourcePoint" />
            <mxPoint x="430" y="1100" as="targetPoint" />
          </mxGeometry>
        </mxCell>
        <mxCell id="wCdDEIBs15aJ1-fx2VtD-230" value="" style="endArrow=none;html=1;rounded=0;" edge="1" parent="1">
          <mxGeometry width="50" height="50" relative="1" as="geometry">
            <mxPoint x="382" y="1140" as="sourcePoint" />
            <mxPoint x="382" y="1130" as="targetPoint" />
          </mxGeometry>
        </mxCell>
        <mxCell id="wCdDEIBs15aJ1-fx2VtD-231" value="" style="endArrow=none;html=1;rounded=0;" edge="1" parent="1">
          <mxGeometry width="50" height="50" relative="1" as="geometry">
            <mxPoint x="407" y="1140" as="sourcePoint" />
            <mxPoint x="407" y="1130" as="targetPoint" />
          </mxGeometry>
        </mxCell>
        <mxCell id="wCdDEIBs15aJ1-fx2VtD-274" value="" style="group;rotation=-180;" vertex="1" connectable="0" parent="1">
          <mxGeometry x="265" y="1118" width="15.5" height="28" as="geometry" />
        </mxCell>
        <mxCell id="wCdDEIBs15aJ1-fx2VtD-275" value="" style="endArrow=none;html=1;rounded=0;" edge="1" parent="wCdDEIBs15aJ1-fx2VtD-274">
          <mxGeometry width="50" height="50" relative="1" as="geometry">
            <mxPoint x="6" y="5.6" as="sourcePoint" />
            <mxPoint x="6" y="33.599999999999994" as="targetPoint" />
          </mxGeometry>
        </mxCell>
        <mxCell id="wCdDEIBs15aJ1-fx2VtD-276" value="" style="endArrow=none;html=1;rounded=0;" edge="1" parent="wCdDEIBs15aJ1-fx2VtD-274">
          <mxGeometry width="50" height="50" relative="1" as="geometry">
            <mxPoint x="11" y="5.6" as="sourcePoint" />
            <mxPoint x="1" y="5.6" as="targetPoint" />
          </mxGeometry>
        </mxCell>
        <mxCell id="wCdDEIBs15aJ1-fx2VtD-277" value="" style="endArrow=none;html=1;rounded=0;" edge="1" parent="wCdDEIBs15aJ1-fx2VtD-274">
          <mxGeometry width="50" height="50" relative="1" as="geometry">
            <mxPoint x="11" y="21" as="sourcePoint" />
            <mxPoint x="11" y="21" as="targetPoint" />
            <Array as="points">
              <mxPoint x="1" y="28" />
            </Array>
          </mxGeometry>
        </mxCell>
        <mxCell id="wCdDEIBs15aJ1-fx2VtD-278" value="" style="endArrow=none;html=1;rounded=0;" edge="1" parent="wCdDEIBs15aJ1-fx2VtD-274">
          <mxGeometry width="50" height="50" relative="1" as="geometry">
            <mxPoint x="11" y="23.799999999999997" as="sourcePoint" />
            <mxPoint x="11" y="23.799999999999997" as="targetPoint" />
            <Array as="points">
              <mxPoint x="1" y="30.799999999999997" />
            </Array>
          </mxGeometry>
        </mxCell>
        <mxCell id="wCdDEIBs15aJ1-fx2VtD-279" value="" style="endArrow=none;html=1;rounded=0;" edge="1" parent="wCdDEIBs15aJ1-fx2VtD-274">
          <mxGeometry width="50" height="50" relative="1" as="geometry">
            <mxPoint x="11" y="26.599999999999998" as="sourcePoint" />
            <mxPoint x="11" y="26.599999999999998" as="targetPoint" />
            <Array as="points">
              <mxPoint x="1" y="33.599999999999994" />
            </Array>
          </mxGeometry>
        </mxCell>
        <mxCell id="wCdDEIBs15aJ1-fx2VtD-280" value="" style="endArrow=none;html=1;rounded=0;" edge="1" parent="wCdDEIBs15aJ1-fx2VtD-274">
          <mxGeometry width="50" height="50" relative="1" as="geometry">
            <mxPoint x="11" y="18.2" as="sourcePoint" />
            <mxPoint x="11" y="18.2" as="targetPoint" />
            <Array as="points">
              <mxPoint x="1" y="25.2" />
            </Array>
          </mxGeometry>
        </mxCell>
        <mxCell id="wCdDEIBs15aJ1-fx2VtD-281" value="" style="endArrow=none;html=1;rounded=0;" edge="1" parent="wCdDEIBs15aJ1-fx2VtD-274">
          <mxGeometry width="50" height="50" relative="1" as="geometry">
            <mxPoint x="10" y="15.399999999999999" as="sourcePoint" />
            <mxPoint x="10" y="15.399999999999999" as="targetPoint" />
            <Array as="points">
              <mxPoint y="22.4" />
            </Array>
          </mxGeometry>
        </mxCell>
        <mxCell id="wCdDEIBs15aJ1-fx2VtD-282" value="" style="ellipse;whiteSpace=wrap;html=1;fillColor=none;" vertex="1" parent="wCdDEIBs15aJ1-fx2VtD-274">
          <mxGeometry x="-5" width="25.5" height="10" as="geometry" />
        </mxCell>
        <mxCell id="wCdDEIBs15aJ1-fx2VtD-283" value="" style="endArrow=none;html=1;rounded=0;entryX=0;entryY=0.5;entryDx=0;entryDy=0;dashed=1;dashPattern=1 1;" edge="1" parent="wCdDEIBs15aJ1-fx2VtD-274">
          <mxGeometry width="50" height="50" relative="1" as="geometry">
            <mxPoint x="20.44999999999999" y="11" as="sourcePoint" />
            <mxPoint x="20.44999999999999" y="5" as="targetPoint" />
          </mxGeometry>
        </mxCell>
        <mxCell id="wCdDEIBs15aJ1-fx2VtD-284" value="" style="endArrow=none;html=1;rounded=0;entryX=0;entryY=0.5;entryDx=0;entryDy=0;dashed=1;dashPattern=1 1;" edge="1" parent="1" target="wCdDEIBs15aJ1-fx2VtD-282">
          <mxGeometry width="50" height="50" relative="1" as="geometry">
            <mxPoint x="260" y="1129" as="sourcePoint" />
            <mxPoint x="308" y="1099" as="targetPoint" />
          </mxGeometry>
        </mxCell>
        <mxCell id="wCdDEIBs15aJ1-fx2VtD-285" value="" style="endArrow=none;html=1;rounded=0;" edge="1" parent="1">
          <mxGeometry width="50" height="50" relative="1" as="geometry">
            <mxPoint x="260" y="1139" as="sourcePoint" />
            <mxPoint x="260" y="1129" as="targetPoint" />
          </mxGeometry>
        </mxCell>
        <mxCell id="wCdDEIBs15aJ1-fx2VtD-286" value="" style="endArrow=none;html=1;rounded=0;" edge="1" parent="1">
          <mxGeometry width="50" height="50" relative="1" as="geometry">
            <mxPoint x="285" y="1139" as="sourcePoint" />
            <mxPoint x="285" y="1129" as="targetPoint" />
          </mxGeometry>
        </mxCell>
        <mxCell id="wCdDEIBs15aJ1-fx2VtD-300" value="&lt;i&gt;vis+entretoise+écrou&lt;/i&gt;" style="text;html=1;align=center;verticalAlign=middle;whiteSpace=wrap;rounded=0;" vertex="1" parent="1">
          <mxGeometry x="67" y="1110" width="120" height="30" as="geometry" />
        </mxCell>
        <mxCell id="wCdDEIBs15aJ1-fx2VtD-301" value="" style="endArrow=classic;html=1;rounded=0;exitX=1;exitY=0.5;exitDx=0;exitDy=0;" edge="1" parent="1" source="wCdDEIBs15aJ1-fx2VtD-300">
          <mxGeometry width="50" height="50" relative="1" as="geometry">
            <mxPoint x="170" y="1070" as="sourcePoint" />
            <mxPoint x="290" y="1100" as="targetPoint" />
          </mxGeometry>
        </mxCell>
        <mxCell id="wCdDEIBs15aJ1-fx2VtD-302" value="&lt;i&gt;connecteur header 4pos/2 rangées&lt;/i&gt;" style="text;html=1;align=center;verticalAlign=middle;whiteSpace=wrap;rounded=0;" vertex="1" parent="1">
          <mxGeometry x="575" y="1000" width="120" height="30" as="geometry" />
        </mxCell>
        <mxCell id="wCdDEIBs15aJ1-fx2VtD-303" value="&lt;i&gt;bornier +/-&lt;/i&gt;" style="text;html=1;align=center;verticalAlign=middle;whiteSpace=wrap;rounded=0;" vertex="1" parent="1">
          <mxGeometry x="570" y="1089" width="70" height="30" as="geometry" />
        </mxCell>
        <mxCell id="wCdDEIBs15aJ1-fx2VtD-304" value="&lt;i&gt;connector DIN 41612&lt;/i&gt;" style="text;html=1;align=center;verticalAlign=middle;whiteSpace=wrap;rounded=0;" vertex="1" parent="1">
          <mxGeometry x="585" y="920" width="120" height="30" as="geometry" />
        </mxCell>
        <mxCell id="wCdDEIBs15aJ1-fx2VtD-305" value="" style="endArrow=classic;html=1;rounded=0;exitX=0;exitY=0.5;exitDx=0;exitDy=0;entryX=1;entryY=0.75;entryDx=0;entryDy=0;" edge="1" parent="1" source="wCdDEIBs15aJ1-fx2VtD-303" target="wCdDEIBs15aJ1-fx2VtD-176">
          <mxGeometry width="50" height="50" relative="1" as="geometry">
            <mxPoint x="600" y="1130" as="sourcePoint" />
            <mxPoint x="750" y="1190" as="targetPoint" />
          </mxGeometry>
        </mxCell>
        <mxCell id="wCdDEIBs15aJ1-fx2VtD-306" value="" style="endArrow=classic;html=1;rounded=0;" edge="1" parent="1">
          <mxGeometry width="50" height="50" relative="1" as="geometry">
            <mxPoint x="580" y="1020" as="sourcePoint" />
            <mxPoint x="440" y="1060" as="targetPoint" />
          </mxGeometry>
        </mxCell>
        <mxCell id="wCdDEIBs15aJ1-fx2VtD-307" value="" style="endArrow=classic;html=1;rounded=0;entryX=0.842;entryY=-0.031;entryDx=0;entryDy=0;entryPerimeter=0;" edge="1" parent="1" target="wCdDEIBs15aJ1-fx2VtD-111">
          <mxGeometry width="50" height="50" relative="1" as="geometry">
            <mxPoint x="585" y="940" as="sourcePoint" />
            <mxPoint x="445" y="980" as="targetPoint" />
          </mxGeometry>
        </mxCell>
      </root>
    </mxGraphModel>
  </diagram>
</mxfile>
